<svg xmlns="http://www.w3.org/2000/svg" width="512" height="512" viewBox="0 0 512 512" fill="none">
  <title>Converted logo</title>
  <g fill="#1f1f1f" fill-rule="evenodd">
    <path d="M 249.80 218.07 L 246.88 219.53 L 244.69 221.35 L 242.14 225.00 L 242.14 225.73 L 241.41 227.19 L 241.41 228.28 L 241.05 228.64 L 240.68 241.41 L 240.32 241.78 L 240.32 248.34 L 239.95 248.71 L 239.95 255.27 L 239.59 255.64 L 239.59 262.20 L 239.22 262.57 L 239.22 274.60 L 239.59 274.97 L 239.95 279.34 L 240.32 279.71 L 240.68 282.26 L 241.41 283.72 L 241.41 284.81 L 245.06 292.84 L 245.79 293.57 L 247.61 296.85 L 250.53 300.13 L 250.53 300.50 L 254.54 304.51 L 254.91 304.51 L 258.19 307.43 L 261.47 309.25 L 262.20 309.98 L 269.13 313.26 L 269.86 313.26 L 271.32 313.99 L 272.41 313.99 L 273.87 314.72 L 275.33 314.72 L 275.70 315.09 L 277.16 315.09 L 277.52 315.45 L 279.71 315.45 L 280.07 315.82 L 291.74 315.82 L 292.11 315.45 L 294.30 315.45 L 294.66 315.09 L 296.12 315.09 L 296.49 314.72 L 297.95 314.72 L 299.40 313.99 L 300.50 313.99 L 300.86 313.63 L 303.78 312.90 L 304.88 312.17 L 305.60 312.17 L 310.35 309.62 L 310.71 309.98 L 309.98 314.72 L 308.16 319.47 L 307.43 320.19 L 305.60 323.48 L 300.50 328.58 L 297.95 330.41 L 294.30 332.23 L 293.57 332.23 L 289.92 333.69 L 288.10 333.69 L 287.73 334.05 L 283.36 334.05 L 282.99 334.42 L 281.17 334.42 L 278.25 335.51 L 276.06 336.97 L 274.24 338.80 L 272.78 340.98 L 271.68 343.54 L 271.68 345.00 L 271.32 345.36 L 271.32 349.01 L 271.68 349.37 L 272.05 351.56 L 274.24 355.21 L 276.43 357.03 L 278.61 358.13 L 280.80 358.49 L 281.17 358.86 L 287.00 358.86 L 287.37 358.49 L 290.29 358.49 L 290.65 358.13 L 294.30 357.76 L 294.66 357.40 L 295.76 357.40 L 297.22 356.67 L 298.31 356.67 L 298.67 356.30 L 300.50 355.94 L 307.79 352.66 L 308.52 351.93 L 312.53 349.74 L 316.91 346.09 L 317.28 346.09 L 323.11 340.26 L 328.58 332.60 L 331.87 326.03 L 332.23 324.21 L 333.33 322.02 L 333.33 320.92 L 334.05 319.47 L 334.05 318.01 L 334.78 316.18 L 335.15 310.35 L 335.51 309.98 L 335.51 303.42 L 335.88 303.05 L 335.88 296.49 L 336.24 296.12 L 336.24 289.56 L 336.61 289.19 L 336.61 282.63 L 336.97 282.26 L 336.97 275.70 L 337.34 275.33 L 337.34 268.77 L 337.70 268.40 L 337.70 261.84 L 338.07 261.47 L 338.07 254.91 L 338.43 254.54 L 338.43 247.98 L 338.80 247.61 L 338.80 241.05 L 339.16 240.68 L 339.16 234.12 L 339.53 233.75 L 339.53 226.82 L 339.16 226.46 L 339.16 225.36 L 337.70 222.44 L 334.78 219.53 L 332.96 218.43 L 332.23 218.43 L 330.77 217.70 L 324.94 217.70 L 324.57 218.07 L 322.75 218.43 L 320.19 219.89 L 317.28 222.81 L 315.45 226.09 L 315.09 229.37 L 314.72 229.74 L 314.72 236.30 L 314.36 236.67 L 314.36 243.23 L 313.99 243.60 L 313.99 250.16 L 313.63 250.53 L 313.63 257.09 L 313.26 257.46 L 312.90 268.77 L 312.53 269.13 L 312.53 270.59 L 312.17 270.95 L 312.17 272.05 L 311.81 272.41 L 311.08 275.33 L 309.62 278.25 L 306.70 282.26 L 303.78 285.18 L 300.86 287.37 L 299.04 288.10 L 298.31 288.83 L 297.58 288.83 L 294.66 290.29 L 293.57 290.29 L 291.74 291.02 L 289.56 291.02 L 289.19 291.38 L 284.81 291.38 L 284.45 291.02 L 282.63 291.02 L 282.26 290.65 L 279.71 290.29 L 273.87 287.37 L 268.77 282.63 L 266.94 280.07 L 265.48 277.16 L 265.48 276.43 L 264.39 273.87 L 264.02 269.50 L 263.66 269.13 L 263.66 266.94 L 264.02 266.58 L 264.02 260.01 L 264.39 259.65 L 264.39 253.08 L 264.75 252.72 L 264.75 246.15 L 265.12 245.79 L 265.12 239.22 L 265.48 238.86 L 265.48 232.29 L 265.85 231.93 L 265.85 227.55 L 265.48 227.19 L 265.48 225.73 L 263.66 222.08 L 261.47 219.89 L 258.19 218.07 L 257.46 218.07 L 257.09 217.70 L 251.26 217.70 L 250.89 218.07 Z"/> <path d="M 130.89 220.26 L 127.98 223.54 L 126.88 225.73 L 126.52 228.28 L 126.15 228.64 L 125.79 247.98 L 125.42 248.34 L 125.42 258.55 L 125.06 258.92 L 125.06 273.87 L 125.42 274.24 L 125.42 276.43 L 125.79 276.79 L 125.79 278.25 L 126.15 278.61 L 126.52 281.17 L 126.88 281.53 L 127.98 285.54 L 128.71 286.64 L 128.71 287.37 L 131.62 292.84 L 136.73 299.77 L 142.93 305.60 L 149.50 309.98 L 155.70 312.90 L 156.43 312.90 L 160.07 314.36 L 162.99 314.72 L 163.36 315.09 L 164.81 315.09 L 165.18 315.45 L 167.37 315.45 L 167.73 315.82 L 179.40 315.82 L 179.77 315.45 L 181.96 315.45 L 182.32 315.09 L 183.78 315.09 L 184.15 314.72 L 188.16 313.99 L 188.52 313.63 L 190.35 313.26 L 191.44 312.53 L 192.17 312.53 L 198.74 309.25 L 204.94 304.88 L 211.87 297.95 L 215.51 292.84 L 219.53 285.18 L 219.53 284.45 L 220.26 283.36 L 220.26 282.63 L 221.71 278.98 L 221.71 277.88 L 222.08 277.52 L 222.08 276.06 L 222.44 275.70 L 222.44 274.24 L 222.81 273.87 L 222.81 272.05 L 223.17 271.68 L 223.17 267.67 L 223.54 267.31 L 223.90 246.88 L 224.27 246.52 L 224.27 236.67 L 224.63 236.30 L 224.63 227.19 L 224.27 226.82 L 223.90 224.63 L 222.44 222.08 L 220.26 219.89 L 216.97 218.07 L 216.24 218.07 L 215.88 217.70 L 209.68 217.70 L 205.67 219.53 L 204.21 220.62 L 202.02 223.17 L 200.19 227.19 L 200.19 229.74 L 199.83 230.10 L 199.83 240.32 L 199.47 240.68 L 199.47 250.89 L 199.10 251.26 L 198.74 268.77 L 198.37 269.13 L 198.01 272.41 L 197.64 272.78 L 197.28 274.60 L 196.55 275.70 L 196.55 276.43 L 193.63 281.17 L 188.52 286.27 L 186.33 287.73 L 180.86 290.29 L 179.77 290.29 L 177.95 291.02 L 175.76 291.02 L 175.39 291.38 L 171.02 291.38 L 170.65 291.02 L 168.83 291.02 L 168.46 290.65 L 164.81 289.92 L 158.98 286.64 L 154.24 281.90 L 151.32 276.79 L 151.32 276.06 L 150.22 273.51 L 149.86 269.86 L 149.50 269.50 L 149.50 265.12 L 149.86 264.75 L 149.86 254.54 L 150.22 254.18 L 150.22 244.33 L 150.59 243.96 L 150.59 233.75 L 150.95 233.39 L 150.95 227.55 L 150.59 227.19 L 150.22 225.00 L 149.13 222.81 L 148.04 221.35 L 145.48 219.16 L 141.84 217.70 L 136.00 217.70 L 135.64 218.07 L 133.81 218.43 Z"/> <path d="M 369.80 227.55 L 363.60 234.12 L 359.59 239.95 L 355.57 248.34 L 355.57 249.07 L 354.12 252.72 L 354.12 253.81 L 353.75 254.18 L 353.75 255.64 L 353.39 256.00 L 353.39 257.46 L 353.02 257.82 L 353.02 260.01 L 352.66 260.38 L 352.66 272.05 L 353.02 272.41 L 353.02 274.60 L 353.39 274.97 L 353.39 276.43 L 353.75 276.79 L 354.12 279.34 L 354.48 279.71 L 355.57 283.72 L 357.03 286.27 L 357.40 287.73 L 358.13 288.46 L 359.95 292.11 L 363.23 296.49 L 369.07 302.32 L 376.00 307.06 L 384.02 310.71 L 387.67 311.44 L 388.04 311.81 L 389.13 311.81 L 389.50 312.17 L 393.51 312.53 L 393.87 312.90 L 397.88 312.90 L 398.25 313.26 L 402.99 312.90 L 406.64 311.44 L 410.29 308.16 L 412.11 304.88 L 412.47 302.32 L 412.84 301.96 L 412.84 298.67 L 412.47 298.31 L 412.47 296.85 L 410.65 293.20 L 408.10 290.65 L 405.54 289.19 L 403.36 288.83 L 402.99 288.46 L 398.25 288.46 L 397.88 288.10 L 394.60 287.73 L 394.24 287.37 L 392.41 287.00 L 391.32 286.27 L 390.59 286.27 L 386.94 284.09 L 383.29 280.80 L 383.29 280.44 L 380.74 277.52 L 378.55 273.14 L 377.82 269.50 L 377.46 269.13 L 377.46 267.31 L 377.09 266.94 L 377.09 262.57 L 377.46 262.20 L 377.82 258.55 L 378.19 258.19 L 378.92 255.27 L 380.38 252.35 L 382.93 248.71 L 386.58 245.06 L 390.22 242.50 L 392.41 241.41 L 393.14 241.41 L 395.33 240.32 L 397.88 239.95 L 398.25 239.59 L 404.45 239.22 L 404.81 239.59 L 407.00 239.59 L 407.37 239.95 L 409.92 240.32 L 414.66 242.50 L 416.85 243.96 L 418.67 245.79 L 419.04 245.79 L 422.69 250.16 L 424.88 254.54 L 424.88 255.27 L 425.60 256.73 L 425.60 257.82 L 425.97 258.19 L 425.97 260.01 L 426.33 260.38 L 425.97 277.88 L 425.60 278.25 L 425.60 288.46 L 425.24 288.83 L 425.24 301.96 L 426.33 304.88 L 427.79 307.06 L 430.35 309.25 L 432.53 310.35 L 435.09 310.71 L 435.45 311.08 L 438.37 311.08 L 438.74 310.71 L 440.19 310.71 L 443.11 309.62 L 445.67 307.79 L 448.22 304.51 L 449.68 300.50 L 449.68 295.03 L 450.04 294.66 L 450.04 284.45 L 450.41 284.09 L 450.41 274.24 L 450.77 273.87 L 450.77 264.02 L 451.14 263.66 L 450.77 256.00 L 450.41 255.64 L 450.41 253.45 L 450.04 253.08 L 450.04 251.62 L 449.68 251.26 L 449.31 248.71 L 448.95 248.34 L 448.22 245.42 L 447.49 244.33 L 447.49 243.60 L 443.48 235.94 L 440.56 231.93 L 437.28 228.64 L 437.28 228.28 L 436.91 228.28 L 432.17 223.90 L 427.79 220.98 L 421.96 218.07 L 421.23 218.07 L 419.04 216.97 L 417.95 216.97 L 416.49 216.24 L 415.39 216.24 L 413.57 215.51 L 412.11 215.51 L 411.74 215.15 L 409.19 215.15 L 408.83 214.78 L 397.88 214.78 L 397.52 215.15 L 395.33 215.15 L 394.97 215.51 L 393.51 215.51 L 393.14 215.88 L 391.68 215.88 L 390.22 216.61 L 389.13 216.61 L 388.77 216.97 L 385.85 217.70 L 378.92 220.98 L 378.19 221.71 L 377.09 222.08 L 373.81 224.27 L 370.16 227.55 Z"/> <path d="M 49.92 188.89 L 46.64 190.71 L 44.09 193.26 L 41.90 197.64 L 41.90 199.47 L 41.53 199.83 L 41.17 217.34 L 40.80 217.70 L 25.85 217.70 L 25.48 218.07 L 24.39 218.07 L 21.11 219.89 L 18.19 222.81 L 16.36 226.46 L 16.36 227.55 L 16.00 227.91 L 16.00 232.66 L 16.36 233.02 L 16.36 234.12 L 18.92 238.49 L 21.11 240.32 L 24.02 241.78 L 25.12 241.78 L 25.48 242.14 L 39.71 242.14 L 40.07 242.50 L 39.71 260.74 L 39.34 261.11 L 39.34 274.24 L 39.71 274.60 L 39.71 276.79 L 40.07 277.16 L 40.07 278.98 L 40.44 279.34 L 41.17 283.36 L 41.53 283.72 L 42.26 286.64 L 43.36 288.46 L 43.36 289.19 L 46.27 294.66 L 49.92 299.77 L 56.12 305.97 L 61.23 309.62 L 67.43 312.90 L 68.16 312.90 L 69.25 313.63 L 69.98 313.63 L 72.53 314.72 L 73.63 314.72 L 73.99 315.09 L 75.09 315.09 L 76.91 315.82 L 82.38 316.18 L 82.75 316.55 L 101.35 316.55 L 101.71 316.18 L 104.27 315.82 L 106.46 314.72 L 109.74 311.81 L 111.93 307.79 L 111.93 306.70 L 112.29 306.33 L 112.29 301.23 L 111.93 300.86 L 111.93 299.77 L 110.47 296.85 L 107.55 293.93 L 103.90 292.11 L 102.08 292.11 L 101.71 291.74 L 83.84 291.74 L 83.48 291.38 L 82.02 291.38 L 81.65 291.02 L 80.56 291.02 L 80.19 290.65 L 78.37 290.29 L 73.26 287.37 L 68.52 282.63 L 65.97 278.25 L 65.97 277.52 L 64.88 275.33 L 64.51 272.78 L 64.15 272.41 L 64.15 269.13 L 63.78 268.77 L 63.78 267.31 L 64.15 266.94 L 64.51 246.88 L 64.88 246.52 L 64.88 242.50 L 65.24 242.14 L 101.71 242.14 L 102.08 241.78 L 104.27 241.41 L 107.91 239.22 L 110.47 236.30 L 111.56 234.12 L 111.93 231.93 L 112.29 231.56 L 112.29 227.19 L 111.93 226.82 L 111.93 225.73 L 111.20 224.63 L 111.20 223.90 L 109.74 221.71 L 107.91 219.89 L 104.63 218.07 L 103.54 218.07 L 103.17 217.70 L 66.33 217.70 L 65.60 216.97 L 65.60 216.24 L 65.97 215.88 L 66.33 198.01 L 64.88 193.99 L 61.59 190.35 L 59.04 188.89 L 56.49 188.52 L 56.12 188.16 L 52.47 188.16 L 52.11 188.52 Z"/> <path d="M 427.43 188.52 L 426.33 190.35 L 426.33 191.44 L 425.97 191.81 L 425.97 194.36 L 427.43 197.64 L 428.52 198.74 L 431.08 200.19 L 435.45 200.19 L 439.10 198.74 L 442.75 198.74 L 443.11 199.10 L 444.21 199.10 L 447.12 200.56 L 450.41 204.21 L 451.14 205.67 L 451.50 208.22 L 451.87 208.58 L 451.87 210.41 L 451.50 210.77 L 451.87 214.05 L 454.05 217.34 L 456.61 218.80 L 461.35 218.80 L 464.63 216.61 L 466.09 214.05 L 466.09 212.60 L 466.46 212.23 L 466.46 206.76 L 466.09 206.40 L 465.73 202.75 L 465.36 202.38 L 465.00 200.56 L 464.27 199.47 L 464.27 198.74 L 461.71 194.36 L 460.26 192.90 L 460.26 192.53 L 456.24 188.89 L 450.41 185.60 L 449.68 185.60 L 448.22 184.88 L 447.12 184.88 L 446.76 184.51 L 445.30 184.51 L 444.94 184.15 L 436.91 184.15 L 436.55 184.51 L 435.09 184.51 L 434.72 184.88 L 433.63 184.88 L 429.98 186.33 Z"/> <path d="M 418.67 159.34 L 416.85 162.99 L 416.85 165.91 L 417.95 168.46 L 420.13 170.65 L 422.69 171.74 L 425.97 171.74 L 428.89 170.29 L 430.71 169.92 L 431.81 169.19 L 432.90 169.19 L 433.26 168.83 L 435.82 168.46 L 436.18 168.10 L 437.64 168.10 L 438.01 167.73 L 444.94 167.37 L 445.30 167.73 L 448.58 167.73 L 448.95 168.10 L 450.41 168.10 L 450.77 168.46 L 452.23 168.46 L 453.69 169.19 L 454.78 169.19 L 456.97 170.29 L 457.70 170.29 L 463.90 173.57 L 466.82 175.76 L 472.66 181.59 L 475.94 186.33 L 477.76 189.98 L 477.76 190.71 L 478.49 191.81 L 478.49 192.53 L 479.59 195.09 L 479.95 198.01 L 480.32 198.37 L 480.32 200.19 L 480.68 200.56 L 480.68 209.31 L 480.32 209.68 L 480.32 211.87 L 481.41 214.78 L 483.60 216.97 L 485.79 218.07 L 489.43 218.07 L 489.80 217.70 L 490.53 217.70 L 491.99 216.97 L 493.81 215.15 L 494.54 214.05 L 494.91 211.50 L 495.27 211.14 L 495.27 206.40 L 495.64 206.03 L 495.64 203.84 L 495.27 203.48 L 495.27 198.74 L 494.91 198.37 L 494.91 196.18 L 494.54 195.82 L 494.54 194.36 L 494.18 193.99 L 493.81 191.08 L 493.45 190.71 L 492.35 186.70 L 491.62 185.60 L 491.62 184.88 L 490.53 183.05 L 490.53 182.32 L 489.80 180.86 L 489.07 180.13 L 487.25 176.49 L 484.33 172.47 L 477.76 165.54 L 477.40 165.54 L 474.12 162.63 L 470.83 160.44 L 469.74 160.07 L 469.01 159.34 L 460.98 155.70 L 460.26 155.70 L 458.80 154.97 L 457.70 154.97 L 456.24 154.24 L 455.15 154.24 L 454.78 153.87 L 450.77 153.51 L 450.41 153.14 L 447.49 153.14 L 447.12 152.78 L 439.47 152.78 L 439.10 153.14 L 436.18 153.14 L 435.82 153.51 L 433.99 153.51 L 433.63 153.87 L 430.35 154.24 L 428.89 154.97 L 427.79 154.97 L 427.43 155.33 L 425.60 155.70 L 421.96 157.52 L 421.23 157.52 Z"/>
  </g>
</svg>
